<svg width="220" height="236" viewBox="0 0 220 236" fill="none" xmlns="http://www.w3.org/2000/svg">
<g clip-path="url(#clip0_116_1879)">
<path d="M200.495 72.1406L206.68 65.7315L138.779 0L49.0727 29.743L11.7841 86.4264L24.4342 98.705L0 160.362L82.4476 240.5L365 236.023L200.495 72.1406Z" fill="black"/>
<path d="M8.92383 158.457L137.101 26.4673L110.95 35.5138L131.823 10.3864L53.6587 36.3028L22.8485 83.1393L34.4574 78.6954L41.6168 75.9607C41.6168 75.9607 13.0962 147.834 8.92383 158.457Z" fill="#FA5000"/>
<path d="M50.5433 151.895L46.9125 145.618L47.0147 145.512L53.4751 148.864L50.5433 151.897V151.895ZM47.2287 139.134L39.0251 147.622L41.7072 150.209L42.9412 148.932L51.2632 163.999L50.1314 165.169L53.2383 168.166L59.668 161.514L56.561 158.517L55.4567 159.659L52.9546 155.654L57.4302 151.024L61.6285 153.274L60.4966 154.444L63.6036 157.441L70.437 150.371L67.33 147.374L66.1981 148.544L47.2303 139.131L47.2287 139.134ZM77.7974 136.545L76.0753 138.327L65.0565 127.696L67.4743 125.195L70.1305 127.756L72.8564 124.937L66.6976 118.995L51.7562 134.454L57.915 140.396L60.6425 137.576L57.9864 135.014L60.3782 132.54L71.397 143.171L69.6991 144.928L72.8061 147.925L80.906 139.544L77.799 136.547L77.7974 136.545ZM93.7052 127.095C99.4667 121.133 97.4187 114.016 92.8263 109.585C88.234 105.155 81.1492 103.46 75.3861 109.42C69.6246 115.382 71.5672 122.394 76.1871 126.851C80.8071 131.308 87.9437 133.054 93.7052 127.094M79.4206 113.315C81.3503 111.319 84.8756 111.121 88.221 114.35C91.568 117.579 91.5728 121.234 89.6691 123.202C87.7653 125.172 84.1605 125.344 80.7892 122.091C77.4163 118.838 77.4941 115.309 79.4206 113.315ZM102.434 117.265L109.405 110.054L106.273 107.031L104.932 108.417L101.585 105.189L102.639 104.098C104.49 102.182 105.755 102.786 107.455 104.426L111.274 108.11L116.828 102.363L113.721 99.366L112.461 100.67L110.815 99.0825C108.906 97.2405 107.189 96.3559 104.267 98.3178L104.161 98.2157C105.437 96.3105 105.784 93.4592 103.128 90.8962C99.9419 87.8213 95.9317 88.7334 91.508 93.3101L84.7962 100.254L87.9032 103.251L89.215 101.893L100.605 112.882L99.2932 114.24L102.434 117.265ZM99.3273 96.1145C100.866 97.6001 101.001 99.4243 99.457 101.022L98.403 102.112L93.5431 97.4235L94.5728 96.3591C96.2949 94.577 97.7316 94.5754 99.3257 96.1129M115.172 85.0267L111.543 78.7472L111.645 78.6419L118.104 81.9955L115.172 85.0283V85.0267ZM111.857 72.2653L103.654 80.7529L106.336 83.3402L107.571 82.0619L115.893 97.1287L114.757 98.3048L117.864 101.302L124.292 94.6516L121.185 91.6544L120.08 92.7966L117.58 88.7901L122.056 84.1599L126.254 86.4102L125.122 87.5799L128.229 90.5771L135.069 83.5005L131.962 80.5034L130.83 81.6731L111.859 72.2637L111.857 72.2653ZM128.083 61.8498C130.681 59.1621 133.713 58.8008 137.634 62.5837C142.123 66.9142 141.808 70.1559 139.236 72.8177L138.85 73.2163L127.593 62.3553L128.083 61.8482V61.8498ZM118.493 65.401L121.6 68.3982L122.941 67.0114L134.357 78.0263L133.016 79.4131L136.123 82.4102L142.809 75.4941C147.875 70.2532 148.346 63.7129 142.319 57.8984C136.611 52.3918 130.322 53.1646 125.334 58.3245L118.493 65.4026V65.401ZM152.17 65.806L164.9 52.6364L159.218 47.1541L156.414 50.0556L158.989 52.5408L154.98 56.6882L151.162 53.0042L154.247 49.8126L151.009 46.6875L147.923 49.879L143.569 45.6782L147.579 41.5291L150.206 44.0646L153.01 41.163L147.283 35.6369L134.553 48.8065L137.66 51.8037L138.97 50.4477L150.386 61.4626L149.076 62.8186L152.169 65.806H152.17ZM34.9873 167.609L38.2629 170.768L41.138 167.793L43.6515 170.219C43.3661 171.053 42.8926 171.809 42.2683 172.433C39.4791 175.319 35.2873 175.183 32.3182 172.317C29.542 169.637 29.3247 165.776 31.8365 163.179C34.1943 160.739 36.1792 160.945 36.8878 160.97L39.604 158.159L33.7257 152.487L31.0436 155.26L31.9111 156.098C30.3333 156.853 28.9096 157.895 27.7128 159.168C22.3616 164.704 22.3518 172.407 27.7485 177.613C32.9846 182.664 40.3305 182.345 45.6558 176.835C48.0849 174.389 49.7017 171.255 50.2838 167.86L42.2602 160.119L34.9873 167.609Z" fill="white"/>
<path d="M107.567 190.141C101.264 196.662 94.7936 199.96 87.7283 202.191L80.4797 195.197L81.203 195.025C88.1807 193.373 94.0395 191.122 100.073 184.882C105.563 179.204 109.764 172.592 107.217 170.134C104.875 167.876 100.628 169.564 94.9525 175.437C91.5455 178.962 89.0872 182.267 86.8672 188.133L86.598 188.898L77.016 191.855L62.2368 177.455L91.7255 146.948L98.8005 153.775L75.5015 177.878L80.4425 182.645C82.403 178.347 85.9948 172.961 89.6807 169.149C102.739 155.638 110.705 159.424 114.292 162.884C120.84 169.201 118.451 178.881 107.567 190.142V190.141Z" fill="#FA5000"/>
<path d="M176.048 119.568C169.745 126.089 163.275 129.388 156.21 131.619L148.961 124.625L149.684 124.453C156.662 122.8 162.521 120.55 168.555 114.31C174.044 108.631 178.246 102.02 175.698 99.562C173.356 97.3036 169.109 98.9918 163.434 104.865C160.027 108.39 157.569 111.695 155.349 117.561L155.079 118.326L145.497 121.282L130.718 106.883L160.207 76.3754L167.282 83.2024L143.983 107.306L148.924 112.072C150.884 107.774 154.476 102.389 158.162 98.577C171.221 85.0655 179.186 88.8517 182.773 92.3122C189.321 98.6288 186.932 108.309 176.048 119.57V119.568Z" fill="#FA5000"/>
<path d="M119.653 118.185L124.435 139.492L102.498 135.933L93.0342 145.723L129.804 150.71L136.052 144.247L129.233 108.273L119.653 118.185Z" fill="#FA5000"/>
</g>
<defs>
<clipPath id="clip0_116_1879">
<rect width="220" height="240" fill="white"/>
</clipPath>
</defs>
</svg>
