<svg width="190" height="190" viewBox="0 0 190 190" fill="none" xmlns="http://www.w3.org/2000/svg">
<g clip-path="url(#clip0_369_2136)">
<path d="M170.852 67.3882C186.106 109.289 164.48 155.598 122.58 170.852C80.6793 186.106 34.37 164.48 19.1159 122.58C3.89404 80.7114 25.5201 34.3699 67.3883 19.1481C109.289 3.89399 155.598 25.52 170.852 67.3882ZM164.641 127.471C172.944 109.643 174.456 88.6603 167.216 68.7077C159.942 48.7551 145.3 33.6619 127.471 25.3269C109.643 17.0241 88.6603 15.5115 68.7077 22.7524C48.7552 30.0254 33.662 44.668 25.327 62.4966C17.0241 80.3252 15.5116 101.308 22.7524 121.26C30.0255 141.213 44.6681 156.306 62.4967 164.641C80.3253 172.944 101.308 174.456 121.26 167.215C141.213 159.942 156.306 145.3 164.641 127.471Z" fill="#FA5000"/>
<path d="M181.44 121.518L185.559 123.577C191.255 105.555 191.673 85.6994 185.559 66.4549L181.279 67.9996C186.91 86.0212 186.621 104.59 181.407 121.518H181.44ZM155.083 27.3864L158.269 24.1361C135.645 3.95825 104.043 -4.73077 73.2452 2.54227L74.8221 6.8546C94.9677 2.22045 115.435 4.73061 133.264 13.0335C141.18 16.7343 148.55 21.5294 155.115 27.3864H155.083ZM178.382 59.9542L182.662 58.4095C178.189 47.693 171.978 38.1994 164.448 30.1541L161.262 33.4044C168.31 40.9992 174.167 49.9135 178.382 59.9542ZM168.76 147.295C160.522 158.945 149.483 168.696 136.16 175.486L137.737 179.798C152.154 172.557 164.094 161.97 172.879 149.355L168.76 147.295ZM55.0947 13.838L53.5178 9.52567C39.004 16.5412 26.9359 26.9359 17.9894 39.358L22.1086 41.4498C30.508 29.9931 41.675 20.4352 55.0626 13.838H55.0947ZM31.6987 165.832C54.6442 186.299 86.9223 195.02 118.138 187.136L116.562 182.823C95.9653 187.908 74.9508 185.462 56.736 176.966C48.8193 173.265 41.4498 168.438 34.8525 162.581L31.6666 165.832H31.6987ZM9.04292 67.0019L4.92368 64.9423C-1.15864 83.1571 -1.83445 103.303 4.1835 122.837L8.49583 121.292C2.92842 102.981 3.47551 84.1225 9.04292 67.0341V67.0019ZM11.3922 129.37L7.11203 130.915C11.5853 141.888 17.8929 151.607 25.5842 159.814L28.7702 156.563C21.5616 148.807 15.6401 139.668 11.4244 129.37H11.3922Z" fill="#FA5000"/>
<rect x="78" y="78" width="34" height="34" rx="3" fill="white" fill-opacity="0.45"/>
<path d="M86.5 99.9583V103.5H90.0417L100.477 93.0641L96.9359 89.5225L86.5 99.9583ZM103.217 90.3249C103.594 89.9472 103.594 89.3804 103.217 89.0028L100.997 86.7833C100.62 86.4056 100.053 86.4056 99.6751 86.7833L97.9278 88.5306L101.469 92.0722L103.217 90.3249Z" fill="#FBFBFB"/>
</g>
<defs>
<clipPath id="clip0_369_2136">
<rect width="190" height="190" fill="white"/>
</clipPath>
</defs>
</svg>
